<svg width="20" height="20" viewBox="0 0 20 20" fill="none" xmlns="http://www.w3.org/2000/svg">
<g clip-path="url(#clip0_118_4304)">
<path d="M12.1361 1.36144L12.6337 1.31169L12.1361 1.36144ZM11.9838 0.541611L11.5394 0.770805V0.770805L11.9838 0.541611ZM12.4311 2.81793L12.8286 2.51467V2.51467L12.4311 2.81793ZM13.3595 3.20248L13.2928 2.70694L13.2928 2.70694L13.3595 3.20248ZM14.5979 2.38113L14.9145 2.76811V2.76811L14.5979 2.38113ZM15.2853 1.90918L15.4375 2.38547L15.2853 1.90918ZM15.9872 1.94419L16.186 1.48541V1.48541L15.9872 1.94419ZM16.6243 2.4822L16.2707 2.83575V2.83575L16.6243 2.4822ZM17.5178 3.37567L17.8713 3.02211V3.02211L17.5178 3.37567ZM18.0558 4.01275L18.5146 3.81396L18.5146 3.81396L18.0558 4.01275ZM18.0908 4.71464L18.5671 4.8668L18.5671 4.86679L18.0908 4.71464ZM17.6188 5.4021L17.2318 5.08548V5.08548L17.6188 5.4021ZM16.7975 6.64056L16.3019 6.5739V6.5739L16.7975 6.64056ZM17.182 7.56893L16.8787 7.96645L17.182 7.56893ZM18.6385 7.86385L18.6883 7.36633L18.6385 7.86385ZM19.4584 8.01624L19.6876 7.57187L19.6876 7.57187L19.4584 8.01624ZM19.9299 8.53729L20.3949 8.35345V8.35344L19.9299 8.53729ZM19.93 11.4626L19.465 11.2788L19.465 11.2788L19.93 11.4626ZM19.4583 11.9838L19.6875 12.4282H19.6875L19.4583 11.9838ZM18.6386 12.1361L18.5889 11.6386L18.5726 11.6402L18.5564 11.6429L18.6386 12.1361ZM18.6386 12.1361L18.6884 12.6337L18.7047 12.632L18.7208 12.6293L18.6386 12.1361ZM17.1825 12.4309L16.8794 12.0333L17.1825 12.4309ZM16.7979 13.3596L16.3023 13.4264V13.4264L16.7979 13.3596ZM17.619 14.5976L17.232 14.9142L17.619 14.5976ZM18.0908 15.2848L17.6145 15.437L17.6145 15.437L18.0908 15.2848ZM18.0558 15.9869L17.597 15.7881L17.597 15.7881L18.0558 15.9869ZM17.5179 16.6238L17.8715 16.9773L17.5179 16.6238ZM16.6243 17.5174L16.2708 17.1638V17.1638L16.6243 17.5174ZM15.9873 18.0554L16.1861 18.5141L16.1861 18.5141L15.9873 18.0554ZM15.2854 18.0904L15.1332 18.5667H15.1332L15.2854 18.0904ZM14.5979 17.6184L14.9146 17.2314L14.9103 17.228L14.5979 17.6184ZM14.5979 17.6184L14.2813 18.0054L14.2856 18.0088L14.5979 17.6184ZM13.3595 16.7971L13.4262 16.3015H13.4262L13.3595 16.7971ZM12.4311 17.1816L12.8286 17.4849L12.8286 17.4849L12.4311 17.1816ZM12.1362 18.6383L11.6386 18.5886L12.1362 18.6383ZM11.9837 19.4585L11.5394 19.2292L11.5394 19.2292L11.9837 19.4585ZM11.4628 19.9299L11.2789 19.465H11.2789L11.4628 19.9299ZM8.53729 19.9299L8.72114 19.465H8.72114L8.53729 19.9299ZM8.01624 19.4584L8.46062 19.2292L8.01624 19.4584ZM7.86385 18.6385L7.36634 18.6883L7.86385 18.6385ZM7.56892 17.182L7.17139 17.4853L7.17139 17.4853L7.56892 17.182ZM6.64057 16.7975L6.57392 16.3019H6.57392L6.64057 16.7975ZM5.40208 17.6189L5.08546 17.2319L5.07754 17.2384L5.06989 17.2452L5.40208 17.6189ZM5.40206 17.6189L5.71868 18.0058L5.7266 17.9994L5.73424 17.9926L5.40206 17.6189ZM4.71458 18.0908L4.86673 18.5671H4.86673L4.71458 18.0908ZM4.01272 18.0558L3.81394 18.5146H3.81394L4.01272 18.0558ZM3.37561 17.5178L3.72916 17.1642H3.72916L3.37561 17.5178ZM2.48217 16.6243L2.12861 16.9779H2.12861L2.48217 16.6243ZM1.94414 15.9873L2.40292 15.7885L1.94414 15.9873ZM1.90913 15.2854L2.38542 15.4375L1.90913 15.2854ZM2.3811 14.5979L2.76808 14.9145L2.3811 14.5979ZM3.20247 13.3594L3.69801 13.4261L3.20247 13.3594ZM2.81792 12.4311L3.12119 12.0335H3.12119L2.81792 12.4311ZM1.36143 12.1361L1.31168 12.6337H1.31168L1.36143 12.1361ZM0.541612 11.9838L0.770805 11.5394H0.770805L0.541612 11.9838ZM0.0700471 11.4627L-0.394929 11.6465H-0.394929L0.0700471 11.4627ZM0.0700841 8.53721L-0.394874 8.35333L-0.394874 8.35333L0.0700841 8.53721ZM0.541523 8.01628L0.312285 7.57193L0.312284 7.57193L0.541523 8.01628ZM1.36155 7.86384V7.36384H1.33661L1.3118 7.36633L1.36155 7.86384ZM1.36156 7.86384V8.36384H1.3865L1.41131 8.36136L1.36156 7.86384ZM2.81842 7.56881L2.5151 7.17132L2.51509 7.17132L2.81842 7.56881ZM3.20287 6.64066L3.69841 6.57408H3.69841L3.20287 6.64066ZM2.38128 5.40182L2.76826 5.0852L2.38128 5.40182ZM1.90914 4.71405L2.38545 4.56197H2.38544L1.90914 4.71405ZM1.94413 4.01243L1.48532 3.81371L1.48532 3.81371L1.94413 4.01243ZM2.48233 3.37509L2.83589 3.72864L2.83589 3.72864L2.48233 3.37509ZM3.37565 2.48177L3.0221 2.12822H3.0221L3.37565 2.48177ZM4.01277 1.94373L3.81398 1.48494H3.81398L4.01277 1.94373ZM4.71463 1.90872L4.86677 1.43243L4.71463 1.90872ZM5.4022 2.38076L5.71882 1.99378V1.99378L5.4022 2.38076ZM6.64044 3.20207L6.70718 2.70654L6.64044 3.20207ZM7.56907 2.81742L7.17149 2.51422L7.56907 2.81742ZM7.86387 1.36131L8.36139 1.41106V1.41106L7.86387 1.36131ZM8.01619 0.541704L7.57179 0.312555L7.57179 0.312557L8.01619 0.541704ZM8.53741 0.0700092L8.7212 0.535005L8.7212 0.535004L8.53741 0.0700092ZM11.4627 0.0700478L11.6465 -0.394928L11.6465 -0.394928L11.4627 0.0700478ZM12.6337 1.31169C12.6126 1.10146 12.5947 0.919455 12.5695 0.769597C12.5435 0.614822 12.5051 0.461659 12.4281 0.312416L11.5394 0.770805C11.5497 0.790881 11.5658 0.830795 11.5833 0.935186C11.6017 1.04449 11.6163 1.18775 11.6386 1.41119L12.6337 1.31169ZM12.8286 2.51467C12.8173 2.49983 12.7806 2.43872 12.7421 2.22451C12.7044 2.01507 12.6755 1.73051 12.6337 1.31169L11.6386 1.41119C11.6788 1.81323 11.7116 2.14432 11.7579 2.40161C11.8033 2.65413 11.8731 2.91083 12.0335 3.12119L12.8286 2.51467ZM13.2928 2.70694C13.1148 2.73089 12.9375 2.65749 12.8286 2.51467L12.0335 3.12118C12.3604 3.54967 12.892 3.76987 13.4261 3.69801L13.2928 2.70694ZM14.2813 1.99415C13.9555 2.26069 13.7339 2.44152 13.5592 2.56296C13.3804 2.68717 13.3113 2.70445 13.2928 2.70694L13.4261 3.69801C13.6883 3.66274 13.9192 3.53055 14.1298 3.38412C14.3445 3.23493 14.6018 3.02396 14.9145 2.76811L14.2813 1.99415ZM15.1332 1.4329C14.9732 1.484 14.8377 1.56512 14.7099 1.65619C14.5861 1.74436 14.4448 1.86037 14.2813 1.99415L14.9145 2.76811C15.0883 2.62591 15.1999 2.53493 15.2902 2.47062C15.3764 2.4092 15.416 2.39234 15.4375 2.38547L15.1332 1.4329ZM16.186 1.48541C15.853 1.3411 15.4789 1.32244 15.1332 1.4329L15.4375 2.38547C15.5527 2.34865 15.6774 2.35487 15.7884 2.40297L16.186 1.48541ZM16.9778 2.12865C16.8285 1.97925 16.6993 1.84975 16.5849 1.74971C16.4668 1.64638 16.3401 1.55217 16.186 1.48541L15.7884 2.40297C15.8092 2.41195 15.8469 2.43267 15.9265 2.50236C16.01 2.57534 16.112 2.67697 16.2707 2.83575L16.9778 2.12865ZM17.8713 3.02211L16.9778 2.12865L16.2707 2.83575L17.1642 3.72922L17.8713 3.02211ZM18.5146 3.81396C18.4478 3.65988 18.3536 3.53314 18.2503 3.41502C18.1502 3.30065 18.0207 3.17151 17.8713 3.02211L17.1642 3.72922C17.323 3.88801 17.4246 3.99001 17.4976 4.07343C17.5673 4.1531 17.588 4.19082 17.597 4.21155L18.5146 3.81396ZM18.5671 4.86679C18.6775 4.52106 18.6589 4.147 18.5146 3.81396L17.597 4.21154C17.6451 4.32255 17.6513 4.44724 17.6145 4.56249L18.5671 4.86679ZM18.0058 5.71872C18.1396 5.5552 18.2556 5.41382 18.3438 5.29006C18.4348 5.16224 18.516 5.02676 18.5671 4.8668L17.6145 4.56249C17.6076 4.58401 17.5908 4.62359 17.5293 4.7098C17.465 4.80008 17.374 4.91168 17.2318 5.08548L18.0058 5.71872ZM17.293 6.70721C17.2955 6.68872 17.3128 6.61958 17.437 6.44084C17.5584 6.2661 17.7393 6.0445 18.0058 5.71872L17.2318 5.08548C16.976 5.3982 16.765 5.65547 16.6158 5.87015C16.4694 6.08084 16.3372 6.31168 16.3019 6.5739L17.293 6.70721ZM17.4853 7.1714C17.3424 7.06244 17.2691 6.88524 17.293 6.70721L16.3019 6.5739C16.2301 7.108 16.4503 7.63959 16.8787 7.96645L17.4853 7.1714ZM18.6883 7.36633C18.2694 7.32445 17.9849 7.29562 17.7754 7.25793C17.5612 7.21938 17.5001 7.18271 17.4853 7.1714L16.8787 7.96645C17.0891 8.12693 17.3458 8.19668 17.5983 8.24212C17.8556 8.28843 18.1867 8.32117 18.5888 8.36137L18.6883 7.36633ZM19.6876 7.57187C19.5384 7.49489 19.3852 7.45645 19.2304 7.43046C19.0805 7.4053 18.8985 7.38736 18.6883 7.36633L18.5888 8.36137C18.8122 8.38372 18.9555 8.3983 19.0648 8.41666C19.1692 8.43419 19.2091 8.45026 19.2292 8.46062L19.6876 7.57187ZM20.3949 8.35344C20.2615 8.01593 20.0102 7.73825 19.6876 7.57187L19.2292 8.46061C19.3367 8.51607 19.4205 8.60863 19.465 8.72114L20.3949 8.35344ZM20.5 9.36824C20.5 9.15696 20.5003 8.97407 20.4901 8.82244C20.4797 8.66584 20.4567 8.50961 20.3949 8.35345L19.465 8.72114C19.4733 8.74215 19.4853 8.78346 19.4924 8.88908C19.4997 8.99968 19.5 9.14368 19.5 9.36824H20.5ZM20.5 10.6319V9.36824H19.5V10.6319H20.5ZM20.395 11.6464C20.4567 11.4903 20.4797 11.3341 20.4901 11.1775C20.5003 11.026 20.5 10.8431 20.5 10.6319H19.5C19.5 10.8564 19.4997 11.0003 19.4924 11.1109C19.4853 11.2165 19.4733 11.2578 19.465 11.2788L20.395 11.6464ZM19.6875 12.4282C20.0101 12.2618 20.2615 11.984 20.395 11.6464L19.465 11.2788C19.4205 11.3914 19.3367 11.4839 19.2292 11.5394L19.6875 12.4282ZM18.6884 12.6337C18.8986 12.6126 19.0805 12.5947 19.2304 12.5695C19.3851 12.5436 19.5383 12.5051 19.6875 12.4282L19.2292 11.5394C19.2091 11.5498 19.1692 11.5658 19.0648 11.5833C18.9555 11.6017 18.8123 11.6163 18.5889 11.6386L18.6884 12.6337ZM18.7208 12.6293L18.7208 12.6293L18.5564 11.6429L18.5564 11.6429L18.7208 12.6293ZM17.4857 12.8285C17.5006 12.8172 17.5617 12.7805 17.7758 12.742C17.9852 12.7043 18.2697 12.6755 18.6884 12.6337L18.5889 11.6386C18.1869 11.6788 17.856 11.7115 17.5987 11.7578C17.3463 11.8032 17.0897 11.8729 16.8794 12.0333L17.4857 12.8285ZM17.2934 13.2929C17.2694 13.1148 17.3428 12.9375 17.4857 12.8285L16.8794 12.0333C16.4507 12.3602 16.2304 12.8921 16.3023 13.4264L17.2934 13.2929ZM18.006 14.281C17.7395 13.9553 17.5588 13.7338 17.4373 13.5591C17.3132 13.3805 17.2959 13.3113 17.2934 13.2929L16.3023 13.4264C16.3377 13.6885 16.4698 13.9192 16.6162 14.1298C16.7653 14.3444 16.9762 14.6016 17.232 14.9142L18.006 14.281ZM18.5671 15.1326C18.5159 14.9727 18.4348 14.8372 18.3438 14.7095C18.2557 14.5858 18.1397 14.4444 18.006 14.281L17.232 14.9142C17.3741 15.0879 17.4651 15.1995 17.5294 15.2897C17.5908 15.3759 17.6076 15.4155 17.6145 15.437L18.5671 15.1326ZM18.5145 16.1858C18.6589 15.8526 18.6776 15.4784 18.5671 15.1326L17.6145 15.437C17.6514 15.5523 17.6451 15.677 17.597 15.7881L18.5145 16.1858ZM17.8715 16.9773C18.0208 16.828 18.1503 16.6989 18.2503 16.5846C18.3536 16.4665 18.4478 16.3398 18.5145 16.1858L17.597 15.7881C17.588 15.8088 17.5673 15.8465 17.4976 15.9261C17.4247 16.0095 17.3231 16.1115 17.1644 16.2702L17.8715 16.9773ZM16.9779 17.8709L17.8715 16.9773L17.1644 16.2702L16.2708 17.1638L16.9779 17.8709ZM16.1861 18.5141C16.3401 18.4474 16.4669 18.3532 16.585 18.2498C16.6994 18.1498 16.8285 18.0203 16.9779 17.8709L16.2708 17.1638C16.112 17.3226 16.01 17.4242 15.9266 17.4972C15.8469 17.5669 15.8092 17.5876 15.7885 17.5966L16.1861 18.5141ZM15.1332 18.5667C15.4789 18.6771 15.853 18.6585 16.1861 18.5141L15.7885 17.5966C15.6775 17.6447 15.5528 17.6509 15.4375 17.6141L15.1332 18.5667ZM14.2813 18.0054C14.4448 18.1392 14.5862 18.2552 14.7099 18.3434C14.8378 18.4344 14.9732 18.5156 15.1332 18.5667L15.4375 17.6141C15.416 17.6072 15.3764 17.5904 15.2902 17.5289C15.1999 17.4646 15.0883 17.3736 14.9145 17.2314L14.2813 18.0054ZM14.2856 18.0088L14.2856 18.0089L14.9103 17.228L14.9103 17.228L14.2856 18.0088ZM13.2928 17.2926C13.3113 17.2951 13.3805 17.3124 13.5592 17.4366C13.7339 17.558 13.9555 17.7389 14.2813 18.0054L14.9145 17.2314C14.6018 16.9756 14.3446 16.7646 14.1299 16.6154C13.9192 16.469 13.6884 16.3368 13.4262 16.3015L13.2928 17.2926ZM12.8286 17.4849C12.9376 17.3421 13.1148 17.2687 13.2928 17.2926L13.4262 16.3015C12.892 16.2297 12.3604 16.4499 12.0336 16.8784L12.8286 17.4849ZM12.6337 18.6881C12.6756 18.2692 12.7044 17.9846 12.7421 17.7751C12.7807 17.5608 12.8173 17.4997 12.8286 17.4849L12.0336 16.8784C11.8731 17.0887 11.8033 17.3455 11.7579 17.598C11.7116 17.8553 11.6789 18.1865 11.6386 18.5886L12.6337 18.6881ZM12.4281 19.6877C12.5051 19.5385 12.5435 19.3852 12.5695 19.2304C12.5947 19.0805 12.6127 18.8984 12.6337 18.6881L11.6386 18.5886C11.6163 18.8121 11.6017 18.9554 11.5833 19.0648C11.5658 19.1692 11.5497 19.2092 11.5394 19.2292L12.4281 19.6877ZM11.6467 20.3949C11.9841 20.2614 12.2617 20.0102 12.4281 19.6877L11.5394 19.2292C11.4839 19.3367 11.3914 19.4205 11.2789 19.465L11.6467 20.3949ZM10.6316 20.5C10.843 20.5 11.0259 20.5003 11.1776 20.4901C11.3342 20.4797 11.4905 20.4566 11.6467 20.3949L11.2789 19.465C11.2579 19.4733 11.2166 19.4853 11.1109 19.4924C11.0003 19.4997 10.8563 19.5 10.6316 19.5V20.5ZM9.36824 20.5H10.6316V19.5H9.36824V20.5ZM8.35345 20.3949C8.50961 20.4567 8.66585 20.4797 8.82244 20.4901C8.97407 20.5003 9.15696 20.5 9.36824 20.5V19.5C9.14368 19.5 8.99968 19.4997 8.88908 19.4924C8.78347 19.4853 8.74215 19.4733 8.72114 19.465L8.35345 20.3949ZM7.57187 19.6876C7.73824 20.0102 8.01593 20.2615 8.35345 20.3949L8.72114 19.465C8.60863 19.4205 8.51607 19.3367 8.46062 19.2292L7.57187 19.6876ZM7.36634 18.6883C7.38736 18.8985 7.4053 19.0805 7.43046 19.2304C7.45645 19.3852 7.49489 19.5384 7.57187 19.6876L8.46062 19.2292C8.45026 19.2091 8.43419 19.1692 8.41666 19.0648C8.3983 18.9555 8.38372 18.8122 8.36137 18.5888L7.36634 18.6883ZM7.17139 17.4853C7.18271 17.5001 7.21938 17.5612 7.25793 17.7754C7.29562 17.9849 7.32445 18.2695 7.36634 18.6883L8.36137 18.5888C8.32117 18.1867 8.28843 17.8556 8.24212 17.5983C8.19668 17.3458 8.12693 17.0891 7.96644 16.8787L7.17139 17.4853ZM6.70722 17.293C6.88525 17.2691 7.06244 17.3425 7.17139 17.4853L7.96644 16.8787C7.63958 16.4503 7.10801 16.2301 6.57392 16.3019L6.70722 17.293ZM5.71869 18.0058C6.04448 17.7393 6.26609 17.5584 6.44084 17.437C6.61958 17.3128 6.68872 17.2955 6.70722 17.293L6.57392 16.3019C6.3117 16.3372 6.08085 16.4694 5.87015 16.6158C5.65547 16.765 5.39819 16.976 5.08546 17.2319L5.71869 18.0058ZM5.73424 17.9926L5.73426 17.9926L5.06989 17.2452L5.06988 17.2452L5.73424 17.9926ZM4.86673 18.5671C5.0267 18.516 5.16218 18.4349 5.29001 18.3438C5.41377 18.2557 5.55516 18.1396 5.71868 18.0058L5.08544 17.2319C4.91164 17.3741 4.80003 17.4651 4.70976 17.5294C4.62354 17.5908 4.58395 17.6077 4.56244 17.6145L4.86673 18.5671ZM3.81394 18.5146C4.14696 18.6589 4.521 18.6776 4.86673 18.5671L4.56244 17.6145C4.44719 17.6514 4.32251 17.6451 4.21151 17.597L3.81394 18.5146ZM3.02205 17.8713C3.17146 18.0207 3.3006 18.1503 3.41497 18.2503C3.5331 18.3536 3.65985 18.4479 3.81394 18.5146L4.21151 17.597C4.19078 17.5881 4.15306 17.5673 4.07339 17.4977C3.98996 17.4247 3.88796 17.323 3.72916 17.1642L3.02205 17.8713ZM2.12861 16.9779L3.02205 17.8713L3.72916 17.1642L2.83572 16.2708L2.12861 16.9779ZM1.48535 16.186C1.55212 16.3401 1.64632 16.4669 1.74966 16.585C1.84971 16.6994 1.97922 16.8285 2.12861 16.9779L2.83572 16.2708C2.67693 16.112 2.57529 16.01 2.50232 15.9266C2.43262 15.8469 2.4119 15.8092 2.40292 15.7885L1.48535 16.186ZM1.43284 15.1332C1.3224 15.479 1.34106 15.853 1.48535 16.186L2.40292 15.7885C2.35482 15.6775 2.34861 15.5528 2.38542 15.4375L1.43284 15.1332ZM1.99413 14.2813C1.86033 14.4448 1.74432 14.5862 1.65614 14.7099C1.56507 14.8378 1.48395 14.9733 1.43284 15.1332L2.38542 15.4375C2.39229 15.416 2.40915 15.3764 2.47058 15.2902C2.53489 15.1999 2.62588 15.0883 2.76808 14.9145L1.99413 14.2813ZM2.70694 13.2928C2.70445 13.3113 2.68716 13.3804 2.56295 13.5592C2.4415 13.7339 2.26067 13.9555 1.99413 14.2813L2.76808 14.9145C3.02394 14.6018 3.23491 14.3445 3.38411 14.1298C3.53054 13.9192 3.66274 13.6883 3.69801 13.4261L2.70694 13.2928ZM2.51466 12.8286C2.65749 12.9375 2.73088 13.1147 2.70694 13.2928L3.69801 13.4261C3.76986 12.892 3.54966 12.3604 3.12119 12.0335L2.51466 12.8286ZM1.31168 12.6337C1.73051 12.6755 2.01507 12.7044 2.2245 12.7421C2.43871 12.7806 2.49983 12.8173 2.51466 12.8286L3.12119 12.0335C2.91083 11.8731 2.65413 11.8033 2.40161 11.7579C2.14432 11.7116 1.81322 11.6788 1.41118 11.6386L1.31168 12.6337ZM0.312419 12.4281C0.46166 12.5051 0.614822 12.5435 0.769595 12.5695C0.919452 12.5947 1.10145 12.6126 1.31168 12.6337L1.41118 11.6386C1.18774 11.6163 1.04449 11.6017 0.935186 11.5833C0.830796 11.5658 0.790881 11.5497 0.770805 11.5394L0.312419 12.4281ZM-0.394929 11.6465C-0.261477 11.9841 -0.0101638 12.2618 0.312419 12.4281L0.770805 11.5394C0.663279 11.4839 0.579508 11.3914 0.535023 11.2789L-0.394929 11.6465ZM-0.5 10.6318C-0.5 10.8431 -0.500259 11.0259 -0.490133 11.1776C-0.479675 11.3341 -0.456671 11.4904 -0.394929 11.6465L0.535024 11.2789C0.526718 11.2578 0.514698 11.2165 0.507645 11.1109C0.500259 11.0003 0.5 10.8563 0.5 10.6318H-0.5ZM-0.5 9.36835V10.6318H0.5V9.36835H-0.5ZM-0.394874 8.35333C-0.456648 8.50953 -0.479664 8.66579 -0.490128 8.82242C-0.500259 8.97408 -0.5 9.15701 -0.5 9.36835H0.5C0.5 9.14373 0.500259 8.9997 0.507649 8.88908C0.514706 8.78344 0.526732 8.74211 0.535042 8.7211L-0.394874 8.35333ZM0.312284 7.57193C-0.0101886 7.73829 -0.261425 8.0159 -0.394874 8.35333L0.535042 8.7211C0.579525 8.60863 0.663271 8.51609 0.770762 8.46063L0.312284 7.57193ZM1.3118 7.36633C1.10152 7.38735 0.919468 7.4053 0.769573 7.43047C0.614759 7.45647 0.461559 7.49492 0.312285 7.57193L0.770761 8.46063C0.790842 8.45027 0.830764 8.4342 0.93518 8.41666C1.04452 8.3983 1.1878 8.38371 1.4113 8.36136L1.3118 7.36633ZM1.36155 7.36384H1.36155V8.36384H1.36155V7.36384ZM1.36156 7.36384H1.36155V8.36384H1.36156V7.36384ZM2.51509 7.17132C2.50025 7.18265 2.43914 7.21933 2.22487 7.25789C2.01538 7.2956 1.73074 7.32443 1.31181 7.36633L1.41131 8.36136C1.81346 8.32115 2.14464 8.2884 2.402 8.24208C2.65458 8.19662 2.91135 8.12684 3.12174 7.9663L2.51509 7.17132ZM2.70732 6.70725C2.73124 6.88524 2.65786 7.06238 2.5151 7.17132L3.12174 7.9663C3.55004 7.63946 3.77016 7.10804 3.69841 6.57408L2.70732 6.70725ZM1.9943 5.71844C2.26093 6.04432 2.44182 6.26599 2.5633 6.4408C2.68756 6.61959 2.70484 6.68875 2.70732 6.70725L3.69841 6.57408C3.66317 6.31178 3.53094 6.08087 3.38448 5.87012C3.23524 5.65537 3.0242 5.39802 2.76826 5.0852L1.9943 5.71844ZM1.43283 4.86614C1.48393 5.02617 1.56508 5.16171 1.65618 5.28959C1.74439 5.4134 1.86045 5.55484 1.9943 5.71844L2.76826 5.0852C2.62599 4.91132 2.53497 4.79966 2.47063 4.70935C2.40918 4.6231 2.39232 4.58349 2.38545 4.56197L1.43283 4.86614ZM1.48532 3.81371C1.34112 4.14663 1.32247 4.52052 1.43283 4.86614L2.38544 4.56197C2.34866 4.44676 2.35488 4.32213 2.40294 4.21116L1.48532 3.81371ZM2.12878 3.02153C1.97933 3.17099 1.84977 3.30018 1.74969 3.41459C1.64632 3.53276 1.55209 3.65955 1.48532 3.81371L2.40294 4.21116C2.41192 4.19042 2.43264 4.15269 2.50236 4.07299C2.57536 3.98953 2.67704 3.88749 2.83589 3.72864L2.12878 3.02153ZM3.0221 2.12822L2.12878 3.02154L2.83589 3.72864L3.72921 2.83532L3.0221 2.12822ZM3.0221 2.12821L3.0221 2.12822L3.72921 2.83532L3.72921 2.83532L3.0221 2.12821ZM3.81398 1.48494C3.65989 1.55171 3.53315 1.64591 3.41502 1.74925C3.30065 1.8493 3.1715 1.97881 3.0221 2.12821L3.72921 2.83532C3.888 2.67653 3.99001 2.57489 4.07343 2.50191C4.15311 2.43221 4.19082 2.41149 4.21155 2.40251L3.81398 1.48494ZM4.86677 1.43243C4.52105 1.32199 4.147 1.34065 3.81398 1.48494L4.21155 2.40251C4.32256 2.35442 4.44724 2.3482 4.56248 2.38501L4.86677 1.43243ZM5.71882 1.99378C5.55526 1.85997 5.41386 1.74394 5.29008 1.65575C5.16225 1.56467 5.02675 1.48354 4.86677 1.43243L4.56248 2.38501C4.58399 2.39188 4.62359 2.40874 4.70982 2.47018C4.80011 2.53451 4.91175 2.62551 5.08558 2.76774L5.71882 1.99378ZM6.70718 2.70654C6.6887 2.70405 6.61957 2.68676 6.44085 2.56255C6.26613 2.44111 6.04455 2.26029 5.71882 1.99378L5.08558 2.76774C5.39826 3.02357 5.6555 3.23451 5.87013 3.38369C6.08078 3.5301 6.31156 3.66229 6.57371 3.69759L6.70718 2.70654ZM7.17149 2.51422C7.06252 2.6571 6.88526 2.73052 6.70718 2.70654L6.57371 3.69759C7.10797 3.76954 7.63975 3.54927 7.96665 3.12062L7.17149 2.51422ZM7.36635 1.31155C7.32448 1.73026 7.29566 2.01474 7.25799 2.22412C7.21945 2.43828 7.1828 2.49938 7.17149 2.51422L7.96665 3.12062C8.12704 2.9103 8.19676 2.65367 8.24218 2.40121C8.28847 2.14399 8.3212 1.81299 8.36139 1.41106L7.36635 1.31155ZM7.57179 0.312557C7.49485 0.461765 7.45643 0.614886 7.43046 0.769618C7.4053 0.919434 7.38737 1.10139 7.36635 1.31155L8.36139 1.41106C8.38373 1.18768 8.39831 1.04447 8.41665 0.935189C8.43417 0.830827 8.45024 0.790922 8.46059 0.770851L7.57179 0.312557ZM8.35361 -0.394986C8.01596 -0.261529 7.73818 -0.0101371 7.57179 0.312555L8.46059 0.770853C8.51605 0.663287 8.60865 0.57949 8.7212 0.535005L8.35361 -0.394986ZM9.3681 -0.5C9.15688 -0.5 8.97405 -0.500258 8.82247 -0.490138C8.66592 -0.479686 8.50974 -0.456695 8.35361 -0.394986L8.7212 0.535004C8.7422 0.526704 8.7835 0.51469 8.88909 0.50764C8.99965 0.500258 9.1436 0.5 9.3681 0.5V-0.5ZM10.6318 -0.5H9.3681V0.5H10.6318V-0.5ZM11.6465 -0.394928C11.4904 -0.456671 11.3341 -0.479674 11.1776 -0.490133C11.0259 -0.500259 10.8431 -0.5 10.6318 -0.5V0.5C10.8563 0.5 11.0003 0.500259 11.1109 0.507645C11.2165 0.514698 11.2578 0.526718 11.2789 0.535024L11.6465 -0.394928ZM12.4281 0.312416C12.2618 -0.0101634 11.9841 -0.261476 11.6465 -0.394928L11.2789 0.535024C11.3914 0.579508 11.4839 0.663279 11.5394 0.770805L12.4281 0.312416ZM13.5 10C13.5 11.933 11.933 13.5 10 13.5V14.5C12.4853 14.5 14.5 12.4853 14.5 10H13.5ZM10 6.5C11.933 6.5 13.5 8.067 13.5 10H14.5C14.5 7.51472 12.4853 5.5 10 5.5V6.5ZM6.5 10C6.5 8.067 8.067 6.5 10 6.5V5.5C7.51472 5.5 5.5 7.51472 5.5 10H6.5ZM10 13.5C8.067 13.5 6.5 11.933 6.5 10H5.5C5.5 12.4853 7.51472 14.5 10 14.5V13.5Z" fill="#222222"/>
</g>
<defs>
<clipPath id="clip0_118_4304">
<rect width="20" height="20" fill="white"/>
</clipPath>
</defs>
</svg>
