<svg width="20" height="20" viewBox="0 0 20 20" fill="none" xmlns="http://www.w3.org/2000/svg">
<path d="M5.83331 1.66699C5.17027 1.66699 4.53439 1.93038 4.06555 2.39923C3.5967 2.86807 3.33331 3.50395 3.33331 4.16699V15.8337C3.33331 16.4967 3.59671 17.1326 4.06555 17.6014C4.53439 18.0703 5.17027 18.3337 5.83331 18.3337H14.1666C14.8297 18.3337 15.4656 18.0703 15.9344 17.6014C16.4033 17.1326 16.6666 16.4967 16.6666 15.8337V15.0003C16.6666 14.5401 16.2936 14.167 15.8333 14.167C15.3731 14.167 15 14.5401 15 15.0003V15.8337C15 16.0547 14.9122 16.2666 14.7559 16.4229C14.5996 16.5792 14.3877 16.667 14.1666 16.667H5.83331C5.6123 16.667 5.40034 16.5792 5.24406 16.4229C5.08778 16.2666 4.99998 16.0547 4.99998 15.8337V4.16699C4.99998 3.94598 5.08778 3.73402 5.24406 3.57774C5.40034 3.42146 5.6123 3.33366 5.83331 3.33366H14.1666C14.3877 3.33366 14.5996 3.42146 14.7559 3.57774C14.9122 3.73402 15 3.94598 15 4.16699V5.00033C15 5.46056 15.3731 5.83366 15.8333 5.83366C16.2936 5.83366 16.6666 5.46056 16.6666 5.00033V4.16699C16.6666 3.50395 16.4033 2.86807 15.9344 2.39923C15.4656 1.93038 14.8297 1.66699 14.1666 1.66699H5.83331Z" fill="#FF0A00"/>
<path d="M13.9226 6.91107C13.5971 6.58563 13.0695 6.58563 12.7441 6.91107C12.4186 7.23651 12.4186 7.76414 12.7441 8.08958L13.8215 9.16699H9.99998C9.53974 9.16699 9.16665 9.54009 9.16665 10.0003C9.16665 10.4606 9.53974 10.8337 9.99998 10.8337H13.8215L12.7441 11.9111C12.4186 12.2365 12.4186 12.7641 12.7441 13.0896C13.0695 13.415 13.5971 13.415 13.9226 13.0896L16.4226 10.5896C16.748 10.2641 16.748 9.73651 16.4226 9.41107L13.9226 6.91107Z" fill="#FF0A00"/>
</svg>
