<svg width="20" height="20" viewBox="0 0 20 20" fill="none" xmlns="http://www.w3.org/2000/svg">
<g clip-path="url(#clip0_118_4316)">
<path d="M8.33331 7.49967C8.33331 7.01053 8.51576 6.6977 8.75527 6.49447C9.01291 6.27588 9.38612 6.14551 9.79165 6.14551C10.1972 6.14551 10.5704 6.27588 10.828 6.49447C11.0675 6.6977 11.25 7.01053 11.25 7.49967C11.25 7.86398 11.1641 8.06623 11.0644 8.21581C10.9481 8.39032 10.795 8.52793 10.5361 8.76065L10.4842 8.80735C10.2178 9.04705 9.86745 9.37109 9.60029 9.84308C9.32496 10.3295 9.16665 10.9173 9.16665 11.6663C9.16665 12.1266 9.53974 12.4997 9.99998 12.4997C10.4602 12.4997 10.8333 12.1266 10.8333 11.6663C10.8333 11.1654 10.9354 10.8678 11.0507 10.6641C11.1742 10.446 11.3446 10.2752 11.5991 10.0462C11.622 10.0256 11.6462 10.004 11.6714 9.98158C11.8991 9.77859 12.211 9.50055 12.4512 9.14031C12.7421 8.70395 12.9166 8.17704 12.9166 7.49967C12.9166 6.53049 12.5262 5.74956 11.9063 5.22363C11.3046 4.71306 10.5319 4.47884 9.79165 4.47884C9.05134 4.47884 8.27872 4.71306 7.67698 5.22363C7.05712 5.74956 6.66665 6.53049 6.66665 7.49967C6.66665 7.95991 7.03974 8.33301 7.49998 8.33301C7.96022 8.33301 8.33331 7.95991 8.33331 7.49967Z" fill="#030723"/>
<path d="M10.6249 15.5594C10.9345 15.2189 10.9094 14.6918 10.5689 14.3822C10.2283 14.0726 9.70131 14.0977 9.39171 14.4383L9.38338 14.4474C9.07378 14.788 9.09886 15.315 9.4394 15.6246C9.77994 15.9342 10.307 15.9091 10.6166 15.5686L10.6249 15.5594Z" fill="#030723"/>
<path fill-rule="evenodd" clip-rule="evenodd" d="M9.99998 0.833008C4.93724 0.833008 0.833313 4.93694 0.833313 9.99967C0.833313 15.0624 4.93724 19.1663 9.99998 19.1663C15.0627 19.1663 19.1666 15.0624 19.1666 9.99967C19.1666 4.93694 15.0627 0.833008 9.99998 0.833008ZM2.49998 9.99967C2.49998 5.85741 5.85772 2.49967 9.99998 2.49967C14.1422 2.49967 17.5 5.85741 17.5 9.99967C17.5 14.1419 14.1422 17.4997 9.99998 17.4997C5.85772 17.4997 2.49998 14.1419 2.49998 9.99967Z" fill="#030723"/>
</g>
<defs>
<clipPath id="clip0_118_4316">
<rect width="20" height="20" fill="white"/>
</clipPath>
</defs>
</svg>
