<svg width="20" height="20" viewBox="0 0 20 20" fill="none" xmlns="http://www.w3.org/2000/svg">
<g clip-path="url(#clip0_112_3542)">
<path d="M8.33334 7.49967C8.33334 7.01053 8.51579 6.6977 8.7553 6.49447C9.01294 6.27588 9.38615 6.14551 9.79168 6.14551C10.1972 6.14551 10.5704 6.27588 10.8281 6.49447C11.0676 6.6977 11.25 7.01053 11.25 7.49967C11.25 7.86398 11.1642 8.06623 11.0644 8.21581C10.9481 8.39032 10.795 8.52793 10.5361 8.76065L10.4842 8.80735C10.2179 9.04705 9.86748 9.37109 9.60032 9.84308C9.32499 10.3295 9.16668 10.9173 9.16668 11.6663C9.16668 12.1266 9.53977 12.4997 10 12.4997C10.4602 12.4997 10.8333 12.1266 10.8333 11.6663C10.8333 11.1654 10.9355 10.8678 11.0507 10.6641C11.1742 10.446 11.3447 10.2752 11.5991 10.0462C11.6221 10.0256 11.6462 10.004 11.6714 9.98158C11.8991 9.77859 12.211 9.50055 12.4512 9.14031C12.7421 8.70395 12.9167 8.17704 12.9167 7.49967C12.9167 6.53049 12.5262 5.74956 11.9063 5.22363C11.3046 4.71306 10.532 4.47884 9.79168 4.47884C9.05138 4.47884 8.27875 4.71306 7.67701 5.22363C7.05715 5.74956 6.66668 6.53049 6.66668 7.49967C6.66668 7.95991 7.03977 8.33301 7.50001 8.33301C7.96025 8.33301 8.33334 7.95991 8.33334 7.49967Z" fill="#030723"/>
<path d="M10.6249 15.5594C10.9345 15.2189 10.9095 14.6918 10.5689 14.3822C10.2284 14.0726 9.70134 14.0977 9.39174 14.4383L9.38341 14.4474C9.07381 14.788 9.09889 15.315 9.43943 15.6246C9.77997 15.9342 10.307 15.9091 10.6166 15.5686L10.6249 15.5594Z" fill="#030723"/>
<path fill-rule="evenodd" clip-rule="evenodd" d="M10 0.833008C4.93727 0.833008 0.833344 4.93694 0.833344 9.99967C0.833344 15.0624 4.93727 19.1663 10 19.1663C15.0627 19.1663 19.1667 15.0624 19.1667 9.99967C19.1667 4.93694 15.0627 0.833008 10 0.833008ZM2.50001 9.99967C2.50001 5.85741 5.85775 2.49967 10 2.49967C14.1423 2.49967 17.5 5.85741 17.5 9.99967C17.5 14.1419 14.1423 17.4997 10 17.4997C5.85775 17.4997 2.50001 14.1419 2.50001 9.99967Z" fill="#030723"/>
</g>
<defs>
<clipPath id="clip0_112_3542">
<rect width="20" height="20" fill="white"/>
</clipPath>
</defs>
</svg>
