<svg width="20" height="20" viewBox="0 0 20 20" fill="none" xmlns="http://www.w3.org/2000/svg">
<path d="M5.83337 1.66699C5.17033 1.66699 4.53445 1.93038 4.06561 2.39923C3.59677 2.86807 3.33337 3.50395 3.33337 4.16699V15.8337C3.33337 16.4967 3.59677 17.1326 4.06561 17.6014C4.53445 18.0703 5.17033 18.3337 5.83337 18.3337H14.1667C14.8297 18.3337 15.4656 18.0703 15.9345 17.6014C16.4033 17.1326 16.6667 16.4967 16.6667 15.8337V15.0003C16.6667 14.5401 16.2936 14.167 15.8334 14.167C15.3731 14.167 15 14.5401 15 15.0003V15.8337C15 16.0547 14.9122 16.2666 14.756 16.4229C14.5997 16.5792 14.3877 16.667 14.1667 16.667H5.83337C5.61236 16.667 5.4004 16.5792 5.24412 16.4229C5.08784 16.2666 5.00004 16.0547 5.00004 15.8337V4.16699C5.00004 3.94598 5.08784 3.73402 5.24412 3.57774C5.4004 3.42146 5.61236 3.33366 5.83337 3.33366H14.1667C14.3877 3.33366 14.5997 3.42146 14.756 3.57774C14.9122 3.73402 15 3.94598 15 4.16699V5.00033C15 5.46056 15.3731 5.83366 15.8334 5.83366C16.2936 5.83366 16.6667 5.46056 16.6667 5.00033V4.16699C16.6667 3.50395 16.4033 2.86807 15.9345 2.39923C15.4656 1.93038 14.8297 1.66699 14.1667 1.66699H5.83337Z" fill="#FF0A00"/>
<path d="M13.9226 6.91107C13.5972 6.58563 13.0696 6.58563 12.7441 6.91107C12.4187 7.23651 12.4187 7.76414 12.7441 8.08958L13.8215 9.16699H10C9.5398 9.16699 9.16671 9.54009 9.16671 10.0003C9.16671 10.4606 9.5398 10.8337 10 10.8337H13.8215L12.7441 11.9111C12.4187 12.2365 12.4187 12.7641 12.7441 13.0896C13.0696 13.415 13.5972 13.415 13.9226 13.0896L16.4226 10.5896C16.7481 10.2641 16.7481 9.73651 16.4226 9.41107L13.9226 6.91107Z" fill="#FF0A00"/>
</svg>
