<svg width="20" height="20" viewBox="0 0 20 20" fill="none" xmlns="http://www.w3.org/2000/svg">
<g clip-path="url(#clip0_112_3702)">
<path d="M0.5 7.9C0.5 7.05992 0.5 6.63988 0.66349 6.31901C0.8073 6.03677 1.03677 5.8073 1.31901 5.66349C1.63988 5.5 2.05992 5.5 2.9 5.5H5.31332C5.74409 5.5 5.95947 5.5 6.14963 5.56559C6.31778 5.62359 6.47094 5.71825 6.59801 5.84272C6.74171 5.98347 6.83803 6.17612 7.03066 6.56142L7.96934 8.43898C8.16197 8.82428 8.25829 9.01693 8.40199 9.15768C8.52906 9.28215 8.68222 9.37681 8.85037 9.43481C9.04053 9.5004 9.25591 9.5004 9.68668 9.5004H15.1C15.9401 9.5004 16.3601 9.5004 16.681 9.66389C16.9632 9.8077 17.1927 10.0372 17.3365 10.3194C17.5 10.6403 17.5 11.0603 17.5 11.9004V16.1004C17.5 16.9405 17.5 17.3605 17.3365 17.6814C17.1927 17.9636 16.9632 18.1931 16.681 18.3369C16.3601 18.5004 15.9401 18.5004 15.1 18.5004H2.9C2.05992 18.5004 1.63988 18.5004 1.31901 18.3369C1.03677 18.1931 0.8073 17.9636 0.66349 17.6814C0.5 17.3605 0.5 16.9405 0.5 16.1004V7.9Z" stroke="#222222"/>
<path d="M14.5 9V3.9C14.5 3.05992 14.5 2.63988 14.3365 2.31901C14.1927 2.03677 13.9632 1.8073 13.681 1.66349C13.3601 1.5 12.9401 1.5 12.1 1.5H5.9C5.05992 1.5 4.63988 1.5 4.31901 1.66349C4.03677 1.8073 3.8073 2.03677 3.66349 2.31901C3.5 2.63988 3.5 3.05992 3.5 3.9V6" stroke="#222222"/>
</g>
<defs>
<clipPath id="clip0_112_3702">
<rect width="20" height="20" fill="white"/>
</clipPath>
</defs>
</svg>
