<svg width="103" height="72" viewBox="0 0 103 72" fill="none" xmlns="http://www.w3.org/2000/svg">
<path d="M2 2H13.3211C15.1278 2 16.7219 2.98916 17.2474 4.43626L34.9703 53.2435C35.4957 54.6906 37.0898 55.6798 38.8964 55.6798H78.8281C80.7057 55.6798 82.3443 54.6128 82.8059 53.0892L89.9557 29.498C90.4172 27.9743 92.0559 26.9074 93.9334 26.9074H101" fill="#40FFFF" fill-opacity="0.02"/>
<path d="M2 2H13.3211C15.1278 2 16.7219 2.98916 17.2474 4.43626L34.9703 53.2435C35.4957 54.6906 37.0898 55.6798 38.8964 55.6798H78.8281C80.7057 55.6798 82.3443 54.6128 82.8059 53.0892L89.9557 29.498C90.4172 27.9743 92.0559 26.9074 93.9334 26.9074H101" stroke="#206EB6" stroke-opacity="0.55" stroke-width="3.75648" stroke-linecap="round"/>
<path d="M60.5389 15.6898C59.9379 15.1867 58.9636 15.1867 58.3626 15.6898L48.5693 23.8886C47.9684 24.3917 47.9684 25.2074 48.5693 25.7105C49.1702 26.2136 50.1447 26.2136 50.7456 25.7105L59.4507 18.4228L68.1559 25.7105C68.7568 26.2136 69.7311 26.2136 70.3321 25.7105C70.933 25.2074 70.933 24.3917 70.3321 23.8886L60.5389 15.6898ZM60.9896 40.6493V16.6008H57.9119V40.6493H60.9896Z" fill="#40FFFF" fill-opacity="0.02"/>
<path d="M48.6787 69.851C51.2284 69.851 53.2953 68.1206 53.2953 65.986C53.2953 63.8515 51.2284 62.1211 48.6787 62.1211C46.129 62.1211 44.0621 63.8515 44.0621 65.986C44.0621 68.1206 46.129 69.851 48.6787 69.851Z" fill="#40FFFF" fill-opacity="0.02" stroke="#206EB6" stroke-opacity="0.55" stroke-width="3.00518"/>
<path d="M71.2487 69.851C73.7983 69.851 75.8652 68.1206 75.8652 65.986C75.8652 63.8515 73.7983 62.1211 71.2487 62.1211C68.699 62.1211 66.6321 63.8515 66.6321 65.986C66.6321 68.1206 68.699 69.851 71.2487 69.851Z" fill="#40FFFF" fill-opacity="0.02" stroke="#206EB6" stroke-opacity="0.55" stroke-width="3.00518"/>
</svg>
