<svg width="20" height="20" viewBox="0 0 20 20" fill="none" xmlns="http://www.w3.org/2000/svg">
<path fill-rule="evenodd" clip-rule="evenodd" d="M6.66663 1.66634C6.66663 1.2061 6.29353 0.833008 5.83329 0.833008C5.37305 0.833008 4.99996 1.2061 4.99996 1.66634V2.49967H4.16663C3.50358 2.49967 2.8677 2.76307 2.39886 3.23191C1.93002 3.70075 1.66663 4.33663 1.66663 4.99967V15.833C1.66663 16.496 1.93002 17.1319 2.39886 17.6008C2.8677 18.0696 3.50358 18.333 4.16663 18.333H15.8333C16.4963 18.333 17.1322 18.0696 17.6011 17.6008C18.0699 17.1319 18.3333 16.496 18.3333 15.833V4.99967C18.3333 4.33663 18.0699 3.70075 17.6011 3.23191C17.1322 2.76307 16.4963 2.49967 15.8333 2.49967H15.4166C14.9564 2.49967 14.5833 2.87277 14.5833 3.33301C14.5833 3.79325 14.9564 4.16634 15.4166 4.16634H15.8333C16.0543 4.16634 16.2663 4.25414 16.4225 4.41042C16.5788 4.5667 16.6666 4.77866 16.6666 4.99967V7.49967H3.33329V4.99967C3.33329 4.77866 3.42109 4.5667 3.57737 4.41042C3.73365 4.25414 3.94561 4.16634 4.16663 4.16634H4.99996V4.99967C4.99996 5.45991 5.37305 5.83301 5.83329 5.83301C6.29353 5.83301 6.66663 5.45991 6.66663 4.99967V1.66634ZM3.57737 16.4223C3.42109 16.266 3.33329 16.054 3.33329 15.833V9.16634H16.6666V15.833C16.6666 16.054 16.5788 16.266 16.4225 16.4223C16.2663 16.5785 16.0543 16.6663 15.8333 16.6663H4.16663C3.94561 16.6663 3.73365 16.5785 3.57737 16.4223Z" fill="#030723"/>
<path d="M13.3333 1.66634C13.3333 1.2061 12.9602 0.833008 12.5 0.833008C12.0397 0.833008 11.6666 1.2061 11.6666 1.66634V2.49967H8.74996C8.28972 2.49967 7.91663 2.87277 7.91663 3.33301C7.91663 3.79325 8.28972 4.16634 8.74996 4.16634H11.6666V4.99967C11.6666 5.45991 12.0397 5.83301 12.5 5.83301C12.9602 5.83301 13.3333 5.45991 13.3333 4.99967V1.66634Z" fill="#030723"/>
</svg>
