<svg width="20" height="20" viewBox="0 0 20 20" fill="none" xmlns="http://www.w3.org/2000/svg">
<g clip-path="url(#clip0_118_4557)">
<path d="M8.33337 7.49967C8.33337 7.01053 8.51582 6.6977 8.75533 6.49447C9.01297 6.27588 9.38618 6.14551 9.79171 6.14551C10.1972 6.14551 10.5704 6.27588 10.8281 6.49447C11.0676 6.6977 11.25 7.01053 11.25 7.49967C11.25 7.86398 11.1642 8.06623 11.0645 8.21581C10.9481 8.39032 10.7951 8.52793 10.5362 8.76065L10.4842 8.80735C10.2179 9.04705 9.86751 9.37109 9.60035 9.84308C9.32502 10.3295 9.16671 10.9173 9.16671 11.6663C9.16671 12.1266 9.5398 12.4997 10 12.4997C10.4603 12.4997 10.8334 12.1266 10.8334 11.6663C10.8334 11.1654 10.9355 10.8678 11.0508 10.6641C11.1742 10.446 11.3447 10.2752 11.5992 10.0462C11.6221 10.0256 11.6462 10.004 11.6714 9.98158C11.8991 9.77859 12.2111 9.50055 12.4512 9.14031C12.7421 8.70395 12.9167 8.17704 12.9167 7.49967C12.9167 6.53049 12.5262 5.74956 11.9064 5.22363C11.3046 4.71306 10.532 4.47884 9.79171 4.47884C9.05141 4.47884 8.27878 4.71306 7.67704 5.22363C7.05718 5.74956 6.66671 6.53049 6.66671 7.49967C6.66671 7.95991 7.0398 8.33301 7.50004 8.33301C7.96028 8.33301 8.33337 7.95991 8.33337 7.49967Z" fill="#030723"/>
<path d="M10.625 15.5594C10.9346 15.2189 10.9095 14.6918 10.569 14.3822C10.2284 14.0726 9.70137 14.0977 9.39177 14.4383L9.38344 14.4474C9.07384 14.788 9.09892 15.315 9.43946 15.6246C9.78 15.9342 10.307 15.9091 10.6166 15.5686L10.625 15.5594Z" fill="#030723"/>
<path fill-rule="evenodd" clip-rule="evenodd" d="M10 0.833008C4.9373 0.833008 0.833374 4.93694 0.833374 9.99967C0.833374 15.0624 4.9373 19.1663 10 19.1663C15.0628 19.1663 19.1667 15.0624 19.1667 9.99967C19.1667 4.93694 15.0628 0.833008 10 0.833008ZM2.50004 9.99967C2.50004 5.85741 5.85778 2.49967 10 2.49967C14.1423 2.49967 17.5 5.85741 17.5 9.99967C17.5 14.1419 14.1423 17.4997 10 17.4997C5.85778 17.4997 2.50004 14.1419 2.50004 9.99967Z" fill="#030723"/>
</g>
<defs>
<clipPath id="clip0_118_4557">
<rect width="20" height="20" fill="white"/>
</clipPath>
</defs>
</svg>
