<svg width="20" height="20" viewBox="0 0 20 20" fill="none" xmlns="http://www.w3.org/2000/svg">
<path fill-rule="evenodd" clip-rule="evenodd" d="M6.66666 1.66634C6.66666 1.2061 6.29356 0.833008 5.83332 0.833008C5.37309 0.833008 4.99999 1.2061 4.99999 1.66634V2.49967H4.16666C3.50362 2.49967 2.86773 2.76307 2.39889 3.23191C1.93005 3.70075 1.66666 4.33663 1.66666 4.99967V15.833C1.66666 16.496 1.93005 17.1319 2.39889 17.6008C2.86773 18.0696 3.50361 18.333 4.16666 18.333H15.8333C16.4964 18.333 17.1322 18.0696 17.6011 17.6008C18.0699 17.1319 18.3333 16.496 18.3333 15.833V4.99967C18.3333 4.33663 18.0699 3.70075 17.6011 3.23191C17.1322 2.76307 16.4964 2.49967 15.8333 2.49967H15.4167C14.9564 2.49967 14.5833 2.87277 14.5833 3.33301C14.5833 3.79325 14.9564 4.16634 15.4167 4.16634H15.8333C16.0543 4.16634 16.2663 4.25414 16.4226 4.41042C16.5789 4.5667 16.6667 4.77866 16.6667 4.99967V7.49967H3.33332V4.99967C3.33332 4.77866 3.42112 4.5667 3.5774 4.41042C3.73368 4.25414 3.94564 4.16634 4.16666 4.16634H4.99999V4.99967C4.99999 5.45991 5.37309 5.83301 5.83332 5.83301C6.29356 5.83301 6.66666 5.45991 6.66666 4.99967V1.66634ZM3.5774 16.4223C3.42112 16.266 3.33332 16.054 3.33332 15.833V9.16634H16.6667V15.833C16.6667 16.054 16.5789 16.266 16.4226 16.4223C16.2663 16.5785 16.0543 16.6663 15.8333 16.6663H4.16666C3.94564 16.6663 3.73368 16.5785 3.5774 16.4223Z" fill="#030723"/>
<path d="M13.3333 1.66634C13.3333 1.2061 12.9602 0.833008 12.5 0.833008C12.0398 0.833008 11.6667 1.2061 11.6667 1.66634V2.49967H8.74999C8.28975 2.49967 7.91666 2.87277 7.91666 3.33301C7.91666 3.79325 8.28975 4.16634 8.74999 4.16634H11.6667V4.99967C11.6667 5.45991 12.0398 5.83301 12.5 5.83301C12.9602 5.83301 13.3333 5.45991 13.3333 4.99967V1.66634Z" fill="#030723"/>
</svg>
