<svg width="20" height="20" viewBox="0 0 20 20" fill="none" xmlns="http://www.w3.org/2000/svg">
<path fill-rule="evenodd" clip-rule="evenodd" d="M6.66669 1.66634C6.66669 1.2061 6.29359 0.833008 5.83335 0.833008C5.37312 0.833008 5.00002 1.2061 5.00002 1.66634V2.49967H4.16669C3.50365 2.49967 2.86776 2.76307 2.39892 3.23191C1.93008 3.70075 1.66669 4.33663 1.66669 4.99967V15.833C1.66669 16.496 1.93008 17.1319 2.39892 17.6008C2.86776 18.0696 3.50365 18.333 4.16669 18.333H15.8334C16.4964 18.333 17.1323 18.0696 17.6011 17.6008C18.07 17.1319 18.3334 16.496 18.3334 15.833V4.99967C18.3334 4.33663 18.07 3.70075 17.6011 3.23191C17.1323 2.76307 16.4964 2.49967 15.8334 2.49967H15.4167C14.9564 2.49967 14.5834 2.87277 14.5834 3.33301C14.5834 3.79325 14.9564 4.16634 15.4167 4.16634H15.8334C16.0544 4.16634 16.2663 4.25414 16.4226 4.41042C16.5789 4.5667 16.6667 4.77866 16.6667 4.99967V7.49967H3.33335V4.99967C3.33335 4.77866 3.42115 4.5667 3.57743 4.41042C3.73371 4.25414 3.94567 4.16634 4.16669 4.16634H5.00002V4.99967C5.00002 5.45991 5.37312 5.83301 5.83335 5.83301C6.29359 5.83301 6.66669 5.45991 6.66669 4.99967V1.66634ZM3.57743 16.4223C3.42115 16.266 3.33335 16.054 3.33335 15.833V9.16634H16.6667V15.833C16.6667 16.054 16.5789 16.266 16.4226 16.4223C16.2663 16.5785 16.0544 16.6663 15.8334 16.6663H4.16669C3.94567 16.6663 3.73371 16.5785 3.57743 16.4223Z" fill="#030723"/>
<path d="M13.3334 1.66634C13.3334 1.2061 12.9603 0.833008 12.5 0.833008C12.0398 0.833008 11.6667 1.2061 11.6667 1.66634V2.49967H8.75002C8.28978 2.49967 7.91669 2.87277 7.91669 3.33301C7.91669 3.79325 8.28978 4.16634 8.75002 4.16634H11.6667V4.99967C11.6667 5.45991 12.0398 5.83301 12.5 5.83301C12.9603 5.83301 13.3334 5.45991 13.3334 4.99967V1.66634Z" fill="#030723"/>
</svg>
