<svg width="47" height="28" viewBox="0 0 47 28" fill="none" xmlns="http://www.w3.org/2000/svg">
<path d="M35.9412 16.3337H39.125C40.0678 16.3337 40.5392 16.3337 40.8321 16.0408C41.125 15.7479 41.125 15.2765 41.125 14.3337V12.167C41.125 10.2814 41.125 9.33857 40.5392 8.75278C39.9534 8.16699 39.0106 8.16699 37.125 8.16699H9.875C7.98938 8.16699 7.04657 8.16699 6.46079 8.75278C5.875 9.33857 5.875 10.2814 5.875 12.167V15.3337C5.875 15.8051 5.875 16.0408 6.02145 16.1872C6.16789 16.3337 6.4036 16.3337 6.875 16.3337H11.0588" stroke="#222222" stroke-width="2"/>
<path d="M11.75 23.8909L11.75 13.6667C11.75 12.7239 11.75 12.2525 12.0429 11.9596C12.3358 11.6667 12.8072 11.6667 13.75 11.6667L33.25 11.6667C34.1928 11.6667 34.6642 11.6667 34.9571 11.9596C35.25 12.2525 35.25 12.7239 35.25 13.6667L35.25 23.8909C35.25 24.1728 35.25 24.3137 35.1586 24.3887C35.0673 24.4637 34.929 24.4363 34.6526 24.3814L29.4724 23.3527C29.4239 23.343 29.3996 23.3382 29.375 23.3382C29.3504 23.3382 29.3261 23.343 29.2776 23.3527L23.5974 24.4807C23.5489 24.4903 23.5246 24.4951 23.5 24.4951C23.4754 24.4951 23.4512 24.4903 23.4026 24.4807L23.4026 24.4807L17.7224 23.3527C17.6739 23.343 17.6496 23.3382 17.625 23.3382C17.6004 23.3382 17.5761 23.343 17.5276 23.3527L12.3474 24.3814C12.071 24.4363 11.9327 24.4637 11.8414 24.3887C11.75 24.3137 11.75 24.1728 11.75 23.8909Z" stroke="#222222" stroke-width="2"/>
<path d="M35.25 8.16667V6.38C35.25 5.37191 35.25 4.86786 35.0538 4.48282C34.8812 4.14413 34.6059 3.86876 34.2672 3.69619C33.8821 3.5 33.3781 3.5 32.37 3.5H14.63C13.6219 3.5 13.1179 3.5 12.7328 3.69619C12.3941 3.86876 12.1188 4.14413 11.9462 4.48282C11.75 4.86786 11.75 5.37191 11.75 6.38V8.16667" stroke="#222222" stroke-width="2"/>
<path d="M19.5834 16.333L25.4584 16.333" stroke="#222222" stroke-width="2" stroke-linecap="round"/>
<path d="M19.5834 19.833L28.3959 19.833" stroke="#222222" stroke-width="2" stroke-linecap="round"/>
</svg>
